<?xml version="1.0" encoding="UTF-8" standalone="no"?>
<svg
   xmlns:dc="http://purl.org/dc/elements/1.1/"
   xmlns:cc="http://creativecommons.org/ns#"
   xmlns:rdf="http://www.w3.org/1999/02/22-rdf-syntax-ns#"
   xmlns:svg="http://www.w3.org/2000/svg"
   xmlns="http://www.w3.org/2000/svg"
   xml:space="preserve"
   enable-background="new 0 0 1686.209 481.222"
   viewBox="0 0 1686.209 481.222"
   height="481.222px"
   width="1686.209px"
   y="0px"
   x="0px"
   id="Layer_1"
   version="1.1"><metadata
     id="metadata35"><rdf:RDF><cc:Work
         rdf:about=""><dc:format>image/svg+xml</dc:format><dc:type
           rdf:resource="http://purl.org/dc/dcmitype/StillImage" /><dc:title></dc:title></cc:Work></rdf:RDF></metadata><defs
     id="defs33" /><g
     id="g3"><path
       id="path5"
       d="M218.38,188.382l27.899,61.348l27.899-61.348h29.999v105.146h-24.299l-0.15-66.598l-24.449,56.098H237.28   l-24.449-56.098v66.598h-24.449V188.382H218.38z"
       fill="#C94E34" /><path
       id="path7"
       d="M405.727,260.08H349.33c2.55,9.149,9.299,14.249,18.449,14.249c6.899,0,13.649-2.85,19.049-8.25   l13.949,13.95c-8.249,9.299-20.399,14.399-35.398,14.399c-26.549,0-42.898-16.35-42.898-41.099   c0-25.199,16.949-41.849,42.299-41.849C393.127,211.481,407.527,230.53,405.727,260.08z M379.928,245.83c0-9.3-6-15.6-15-15.6   c-8.699,0-14.399,6.3-16.199,15.6H379.928z M370.928,203.682h-20.249l16.049-25.649l23.85,8.399L370.928,203.682z"
       fill="#C94E34" /><path
       id="path9"
       d="M451.478,182.232v111.296h-26.699V182.232H451.478z"
       fill="#C94E34" /><path
       id="path11"
       d="M553.774,260.08h-56.397c2.55,9.149,9.299,14.249,18.449,14.249c6.899,0,13.649-2.85,19.049-8.25   l13.949,13.95c-8.249,9.299-20.399,14.399-35.398,14.399c-26.549,0-42.898-16.35-42.898-41.099   c0-25.199,16.949-41.849,42.299-41.849C541.175,211.481,555.574,230.53,553.774,260.08z M527.976,245.83c0-9.3-6-15.6-15-15.6   c-8.699,0-14.399,6.3-16.199,15.6H527.976z"
       fill="#C94E34" /><path
       id="path13"
       d="M655.024,242.38v51.148h-26.549V250.03c0-9.15-5.4-14.85-13.8-14.85c-9,0.149-14.85,6.3-15.899,15.449   v42.898h-26.699v-81.147h26.699v13.199c5.7-9.3,14.999-14.25,26.849-14.25C643.324,211.331,655.024,223.331,655.024,242.38z"
       fill="#C94E34" /><path
       id="path15"
       d="M716.225,209.531c-6.6,0-10.949,2.4-10.949,7.2c0,17.4,55.348,7.5,55.348,45.298c0,21.449-18.899,32.399-42.299,32.399   c-17.549,0-35.849-6.45-48.448-16.8l10.65-21.449c10.799,9.3,27.148,15.899,38.098,15.899c8.101,0,13.2-3,13.2-8.55   c0-17.85-55.348-7.05-55.348-44.249c0-19.649,16.649-32.099,41.998-32.099c15.449,0,31.049,4.8,41.998,11.85l-10.35,21.749   C739.023,214.481,724.924,209.531,716.225,209.531z" /><path
       id="path17"
       d="M862.922,242.38v51.148h-26.698V250.03c0-9.15-5.25-14.85-13.8-14.85c-9.899,0.149-15.899,7.649-15.899,18.299v40.049   h-26.699V182.232h26.699v43.348c5.7-9.3,14.999-14.25,26.849-14.25C851.223,211.331,862.922,223.331,862.922,242.38z" /><path
       id="path19"
       d="M957.571,240.73v52.798h-26.249v-9.149c-5.25,6.749-13.499,10.35-24.449,10.35c-17.399,0-27.749-10.5-27.749-25.35   c0-15.449,10.95-24.299,31.049-24.599h21.149v-0.9c0-7.649-5.25-12.149-15.449-12.149c-6.75,0-15.6,2.25-24.299,6.45l-7.35-18   c12.749-5.7,24.448-8.85,37.798-8.85C944.372,211.331,957.421,222.131,957.571,240.73z M931.322,266.079v-7.05h-15.899   c-7.5,0-11.249,2.7-11.249,8.4c0,5.55,4.05,9.149,10.949,9.149C923.072,276.579,929.673,272.229,931.322,266.079z" /><path
       id="path21"
       d="M1016.522,233.53c-9.6,0-16.199,7.95-16.199,19.649c0,11.85,6.6,19.649,16.199,19.649c7.05,0,12.6-2.85,15.899-9.149   l19.648,11.249c-6.449,12.45-19.648,19.5-36.898,19.5c-25.049,0-41.698-16.35-41.698-41.099c0-25.199,16.8-41.849,41.998-41.849   c16.35,0,29.249,7.05,36.299,19.2l-19.349,11.25C1028.821,236.681,1023.422,233.53,1016.522,233.53z" /><path
       id="path23"
       d="M1104.571,262.93l-8.25,8.55v22.049h-26.699V182.232h26.699v57.598l25.949-27.449h30.299l-29.699,31.349l30.299,49.798   h-31.499L1104.571,262.93z" /></g><g
     id="g25"><path
       id="path27"
       d="M1336.189,214.421c8.047-2.175,15.401-7.067,20.521-14.401c8.391-12.029,9.166-28.682,1.887-40.503   l-0.131-0.223c-1.264-2.192-6.045-8.601-11.088-8.974c-5.769-0.427-13.076,2.599-15.147,19.431   c-1.47,11.979-0.276,26.987,3.358,42.251c0.193,0.808,0.39,1.614,0.596,2.42L1336.189,214.421z M1346.837,255.071   c-0.105,0.07-0.211,0.141-0.317,0.207c-3.232,2.074-7.529,1.143-9.595-2.064c-3.934-6.102-7.669-14.359-10.783-23.695   c-9.795-0.062-19.66-2.946-28.289-8.884c-11.07-7.622-18.475-19.083-20.859-32.275c-2.387-13.193,0.541-26.532,8.242-37.565   c5.176-7.418,12.25-13.316,20.455-17.061c0.572-0.293,1.749-0.838,3.176-1.229c5.238-1.432,8.398,0.693,9.814,2.086   c5.424,5.337,1.855,14.143-2.815,22.856c-1.806,3.376-6.017,4.657-9.401,2.873c-3.285-1.733-4.591-5.731-3.006-9.05   c-2.584,2.125-4.885,4.605-6.82,7.374c-5.582,7.993-7.703,17.665-5.977,27.223c1.728,9.554,7.096,17.867,15.119,23.394   c5.031,3.465,10.643,5.492,16.336,6.173c-0.018-0.068-0.033-0.147-0.055-0.227c-2.831-11.893-5.766-29.719-3.629-47.108   c1.298-10.566,4.681-18.709,10.044-24.192c5.282-5.405,12.192-7.959,19.972-7.381c12.996,0.96,20.893,13.815,22.054,15.83   c4.929,8.042,7.325,17.577,6.927,27.577c-0.397,10.105-3.623,19.761-9.323,27.931c-3.361,4.81-7.419,8.862-11.944,12.114   c-4.882,3.496-10.297,6.065-15.975,7.65c2.558,7.199,5.479,13.51,8.431,18.094c1.999,3.102,1.182,7.201-1.794,9.338   L1346.837,255.071z"
       fill="#C94E34" /><path
       id="path29"
       d="M1406.903,345.286l11.861,5.32l5.32-11.861l8.095-18.048l-99.603-8.75L1406.903,345.286z M1485.966,169.013   l-10.709-4.803l-6.603,75.164l23.853-53.179l5.32-11.862L1485.966,169.013z M1470.013,121.053l-12.949-1.138l-37.502-3.294   l3.581,13.365l32.782,2.879l-7.903,89.971l7.835,29.239l1.994,7.445l11.025-125.517L1470.013,121.053z M1346.544,304.141   l93.615,8.224l12.949,1.137l1.139-12.949l2.273-25.879l-16.221,4.346L1346.544,304.141z M1450.528,266.962l-3.365-12.557   l-43.271-161.492l-3.365-12.557l-12.557,3.365l-161.49,43.271l-12.557,3.365l3.364,12.557l43.271,161.491l3.364,12.557   l12.558-3.365l161.489-43.271L1450.528,266.962z M1263.927,266.744l-34.082-127.195l161.49-43.271l34.082,127.196L1263.927,266.744   z"
       fill="#C94E34" /></g></svg>