<?xml version="1.0" encoding="UTF-8" standalone="no"?>
<svg
   xmlns:dc="http://purl.org/dc/elements/1.1/"
   xmlns:cc="http://creativecommons.org/ns#"
   xmlns:rdf="http://www.w3.org/1999/02/22-rdf-syntax-ns#"
   xmlns:svg="http://www.w3.org/2000/svg"
   xmlns="http://www.w3.org/2000/svg"
   xmlns:sodipodi="http://sodipodi.sourceforge.net/DTD/sodipodi-0.dtd"
   xmlns:inkscape="http://www.inkscape.org/namespaces/inkscape"
   xml:space="preserve"
   enable-background="new 0 0 1686.209 481.222"
   viewBox="0 0 283.90399 270.25001"
   height="270.25"
   width="283.90399"
   y="0px"
   x="0px"
   id="Layer_1"
   version="1.1"
   inkscape:version="0.91 r13725"
   sodipodi:docname="melenshack_small.svg"><sodipodi:namedview
     pagecolor="#ffffff"
     bordercolor="#666666"
     borderopacity="1"
     objecttolerance="10"
     gridtolerance="10"
     guidetolerance="10"
     inkscape:pageopacity="0"
     inkscape:pageshadow="2"
     inkscape:window-width="1535"
     inkscape:window-height="876"
     id="namedview3461"
     showgrid="false"
     inkscape:zoom="0.9997234"
     inkscape:cx="389.39182"
     inkscape:cy="174.01271"
     inkscape:window-x="65"
     inkscape:window-y="24"
     inkscape:window-maximized="1"
     inkscape:current-layer="g25"
     fit-margin-top="0"
     fit-margin-left="0"
     fit-margin-right="0"
     fit-margin-bottom="0" /><metadata
     id="metadata35"><rdf:RDF><cc:Work
         rdf:about=""><dc:format>image/svg+xml</dc:format><dc:type
           rdf:resource="http://purl.org/dc/dcmitype/StillImage" /><dc:title></dc:title></cc:Work></rdf:RDF></metadata><defs
     id="defs33" /><g
     id="g25"
     transform="translate(-1213.923,-80.356)"><path
       id="path27"
       d="m 1336.189,214.421 c 8.047,-2.175 15.401,-7.067 20.521,-14.401 8.391,-12.029 9.166,-28.682 1.887,-40.503 l -0.131,-0.223 c -1.264,-2.192 -6.045,-8.601 -11.088,-8.974 -5.769,-0.427 -13.076,2.599 -15.147,19.431 -1.47,11.979 -0.276,26.987 3.358,42.251 0.193,0.808 0.39,1.614 0.596,2.42 l 0,-0.001 z m 10.648,40.65 c -0.105,0.07 -0.211,0.141 -0.317,0.207 -3.232,2.074 -7.529,1.143 -9.595,-2.064 -3.934,-6.102 -7.669,-14.359 -10.783,-23.695 -9.795,-0.062 -19.66,-2.946 -28.289,-8.884 -11.07,-7.622 -18.475,-19.083 -20.859,-32.275 -2.387,-13.193 0.541,-26.532 8.242,-37.565 5.176,-7.418 12.25,-13.316 20.455,-17.061 0.572,-0.293 1.749,-0.838 3.176,-1.229 5.238,-1.432 8.398,0.693 9.814,2.086 5.424,5.337 1.855,14.143 -2.815,22.856 -1.806,3.376 -6.017,4.657 -9.401,2.873 -3.285,-1.733 -4.591,-5.731 -3.006,-9.05 -2.584,2.125 -4.885,4.605 -6.82,7.374 -5.582,7.993 -7.703,17.665 -5.977,27.223 1.728,9.554 7.096,17.867 15.119,23.394 5.031,3.465 10.643,5.492 16.336,6.173 -0.018,-0.068 -0.033,-0.147 -0.055,-0.227 -2.831,-11.893 -5.766,-29.719 -3.629,-47.108 1.298,-10.566 4.681,-18.709 10.044,-24.192 5.282,-5.405 12.192,-7.959 19.972,-7.381 12.996,0.96 20.893,13.815 22.054,15.83 4.929,8.042 7.325,17.577 6.927,27.577 -0.397,10.105 -3.623,19.761 -9.323,27.931 -3.361,4.81 -7.419,8.862 -11.944,12.114 -4.882,3.496 -10.297,6.065 -15.975,7.65 2.558,7.199 5.479,13.51 8.431,18.094 1.999,3.102 1.182,7.201 -1.794,9.338 l 0.012,0.011 z"
       inkscape:connector-curvature="0"
       style="fill:#c94e34" /><path
       id="path29"
       d="m 1406.903,345.286 11.861,5.32 5.32,-11.861 8.095,-18.048 -99.603,-8.75 74.327,33.339 z m 79.063,-176.273 -10.709,-4.803 -6.603,75.164 23.853,-53.179 5.32,-11.862 -11.861,-5.32 z m -15.953,-47.96 -12.949,-1.138 -37.502,-3.294 3.581,13.365 32.782,2.879 -7.903,89.971 7.835,29.239 1.994,7.445 11.025,-125.517 1.137,-12.95 z m -123.469,183.088 93.615,8.224 12.949,1.137 1.139,-12.949 2.273,-25.879 -16.221,4.346 -93.755,25.121 z m 103.984,-37.179 -3.365,-12.557 -43.271,-161.492 -3.365,-12.557 -12.557,3.365 -161.49,43.271 -12.557,3.365 3.364,12.557 43.271,161.491 3.364,12.557 12.558,-3.365 161.489,-43.271 12.559,-3.364 z m -186.601,-0.218 -34.082,-127.195 161.49,-43.271 34.082,127.196 -161.49,43.27 z"
       inkscape:connector-curvature="0"
       style="fill:#c94e34" /></g></svg>