<?xml version="1.0" encoding="UTF-8" standalone="no"?>
<svg
   xmlns:dc="http://purl.org/dc/elements/1.1/"
   xmlns:cc="http://creativecommons.org/ns#"
   xmlns:rdf="http://www.w3.org/1999/02/22-rdf-syntax-ns#"
   xmlns:svg="http://www.w3.org/2000/svg"
   xmlns="http://www.w3.org/2000/svg"
   xmlns:sodipodi="http://sodipodi.sourceforge.net/DTD/sodipodi-0.dtd"
   xmlns:inkscape="http://www.inkscape.org/namespaces/inkscape"
   xml:space="preserve"
   enable-background="new 0 0 1686.209 481.222"
   viewBox="0 0 970 481.222"
   height="481.22198"
   width="970"
   y="0px"
   x="0px"
   id="Layer_1"
   version="1.1"
   inkscape:version="0.91 r13725"
   sodipodi:docname="melenshack_text.svg"><sodipodi:namedview
     pagecolor="#ffffff"
     bordercolor="#666666"
     borderopacity="1"
     objecttolerance="10"
     gridtolerance="10"
     guidetolerance="10"
     inkscape:pageopacity="0"
     inkscape:pageshadow="2"
     inkscape:window-width="1535"
     inkscape:window-height="876"
     id="namedview3518"
     showgrid="false"
     inkscape:zoom="0.59547283"
     inkscape:cx="843.10449"
     inkscape:cy="240.61099"
     inkscape:window-x="65"
     inkscape:window-y="24"
     inkscape:window-maximized="1"
     inkscape:current-layer="Layer_1" /><metadata
     id="metadata35"><rdf:RDF><cc:Work
         rdf:about=""><dc:format>image/svg+xml</dc:format><dc:type
           rdf:resource="http://purl.org/dc/dcmitype/StillImage" /><dc:title></dc:title></cc:Work></rdf:RDF></metadata><defs
     id="defs33" /><g
     id="g3"
     transform="translate(-184.72715,-4.244636)"><path
       id="path5"
       d="m 218.38,188.382 27.899,61.348 27.899,-61.348 29.999,0 0,105.146 -24.299,0 -0.15,-66.598 -24.449,56.098 -17.999,0 -24.449,-56.098 0,66.598 -24.449,0 0,-105.146 29.998,0 z"
       inkscape:connector-curvature="0"
       style="fill:#c94e34" /><path
       id="path7"
       d="m 405.727,260.08 -56.397,0 c 2.55,9.149 9.299,14.249 18.449,14.249 6.899,0 13.649,-2.85 19.049,-8.25 l 13.949,13.95 c -8.249,9.299 -20.399,14.399 -35.398,14.399 -26.549,0 -42.898,-16.35 -42.898,-41.099 0,-25.199 16.949,-41.849 42.299,-41.849 28.347,0.001 42.747,19.05 40.947,48.6 z m -25.799,-14.25 c 0,-9.3 -6,-15.6 -15,-15.6 -8.699,0 -14.399,6.3 -16.199,15.6 l 31.199,0 z m -9,-42.148 -20.249,0 16.049,-25.649 23.85,8.399 -19.65,17.25 z"
       inkscape:connector-curvature="0"
       style="fill:#c94e34" /><path
       id="path9"
       d="m 451.478,182.232 0,111.296 -26.699,0 0,-111.296 26.699,0 z"
       inkscape:connector-curvature="0"
       style="fill:#c94e34" /><path
       id="path11"
       d="m 553.774,260.08 -56.397,0 c 2.55,9.149 9.299,14.249 18.449,14.249 6.899,0 13.649,-2.85 19.049,-8.25 l 13.949,13.95 c -8.249,9.299 -20.399,14.399 -35.398,14.399 -26.549,0 -42.898,-16.35 -42.898,-41.099 0,-25.199 16.949,-41.849 42.299,-41.849 28.348,0.001 42.747,19.05 40.947,48.6 z m -25.798,-14.25 c 0,-9.3 -6,-15.6 -15,-15.6 -8.699,0 -14.399,6.3 -16.199,15.6 l 31.199,0 z"
       inkscape:connector-curvature="0"
       style="fill:#c94e34" /><path
       id="path13"
       d="m 655.024,242.38 0,51.148 -26.549,0 0,-43.498 c 0,-9.15 -5.4,-14.85 -13.8,-14.85 -9,0.149 -14.85,6.3 -15.899,15.449 l 0,42.898 -26.699,0 0,-81.147 26.699,0 0,13.199 c 5.7,-9.3 14.999,-14.25 26.849,-14.25 17.699,0.002 29.399,12.002 29.399,31.051 z"
       inkscape:connector-curvature="0"
       style="fill:#c94e34" /><path
       id="path15"
       d="m 716.225,209.531 c -6.6,0 -10.949,2.4 -10.949,7.2 0,17.4 55.348,7.5 55.348,45.298 0,21.449 -18.899,32.399 -42.299,32.399 -17.549,0 -35.849,-6.45 -48.448,-16.8 l 10.65,-21.449 c 10.799,9.3 27.148,15.899 38.098,15.899 8.101,0 13.2,-3 13.2,-8.55 0,-17.85 -55.348,-7.05 -55.348,-44.249 0,-19.649 16.649,-32.099 41.998,-32.099 15.449,0 31.049,4.8 41.998,11.85 l -10.35,21.749 c -11.1,-6.298 -25.199,-11.248 -33.898,-11.248 z"
       inkscape:connector-curvature="0" /><path
       id="path17"
       d="m 862.922,242.38 0,51.148 -26.698,0 0,-43.498 c 0,-9.15 -5.25,-14.85 -13.8,-14.85 -9.899,0.149 -15.899,7.649 -15.899,18.299 l 0,40.049 -26.699,0 0,-111.296 26.699,0 0,43.348 c 5.7,-9.3 14.999,-14.25 26.849,-14.25 17.849,10e-4 29.548,12.001 29.548,31.05 z"
       inkscape:connector-curvature="0" /><path
       id="path19"
       d="m 957.571,240.73 0,52.798 -26.249,0 0,-9.149 c -5.25,6.749 -13.499,10.35 -24.449,10.35 -17.399,0 -27.749,-10.5 -27.749,-25.35 0,-15.449 10.95,-24.299 31.049,-24.599 l 21.149,0 0,-0.9 c 0,-7.649 -5.25,-12.149 -15.449,-12.149 -6.75,0 -15.6,2.25 -24.299,6.45 l -7.35,-18 c 12.749,-5.7 24.448,-8.85 37.798,-8.85 22.35,0 35.399,10.8 35.549,29.399 z m -26.249,25.349 0,-7.05 -15.899,0 c -7.5,0 -11.249,2.7 -11.249,8.4 0,5.55 4.05,9.149 10.949,9.149 7.949,0.001 14.55,-4.349 16.199,-10.499 z"
       inkscape:connector-curvature="0" /><path
       id="path21"
       d="m 1016.522,233.53 c -9.6,0 -16.199,7.95 -16.199,19.649 0,11.85 6.6,19.649 16.199,19.649 7.05,0 12.6,-2.85 15.899,-9.149 l 19.648,11.249 c -6.449,12.45 -19.648,19.5 -36.898,19.5 -25.049,0 -41.698,-16.35 -41.698,-41.099 0,-25.199 16.8,-41.849 41.998,-41.849 16.35,0 29.249,7.05 36.299,19.2 l -19.349,11.25 c -3.6,-5.249 -8.999,-8.4 -15.899,-8.4 z"
       inkscape:connector-curvature="0" /><path
       id="path23"
       d="m 1104.571,262.93 -8.25,8.55 0,22.049 -26.699,0 0,-111.297 26.699,0 0,57.598 25.949,-27.449 30.299,0 -29.699,31.349 30.299,49.798 -31.499,0 -17.099,-30.598 z"
       inkscape:connector-curvature="0" /></g></svg>